<svg xmlns="http://www.w3.org/2000/svg" xmlns:xlink="http://www.w3.org/1999/xlink" width="500" zoomAndPan="magnify" viewBox="0 0 375 225" height="300" preserveAspectRatio="xMidYMid meet" version="1.0"><defs><g/><clipPath id="66b06d8e7a"><path d="M 94.121094 7.222656 L 140 7.222656 L 140 53 L 94.121094 53 Z M 94.121094 7.222656 " clip-rule="nonzero"/></clipPath><clipPath id="2f2139905d"><path d="M 95 7.222656 L 148.871094 7.222656 L 148.871094 78 L 95 78 Z M 95 7.222656 " clip-rule="nonzero"/></clipPath><clipPath id="fe7c37fb04"><path d="M 111 76 L 132 76 L 132 82.222656 L 111 82.222656 Z M 111 76 " clip-rule="nonzero"/></clipPath><clipPath id="76b33a9af1"><path d="M 120 11.644531 L 125 11.644531 L 125 16 L 120 16 Z M 120 11.644531 " clip-rule="nonzero"/></clipPath><clipPath id="d829c319ea"><path d="M 120.574219 51.226562 L 124 51.226562 L 124 55.144531 L 120.574219 55.144531 Z M 120.574219 51.226562 " clip-rule="nonzero"/></clipPath><clipPath id="124e2aa88c"><path d="M 99.628906 31 L 105 31 L 105 36 L 99.628906 36 Z M 99.628906 31 " clip-rule="nonzero"/></clipPath><clipPath id="ca058beb8e"><path d="M 140 31.4375 L 143.125 31.4375 L 143.125 35.261719 L 140 35.261719 Z M 140 31.4375 " clip-rule="nonzero"/></clipPath></defs><g clip-path="url(#66b06d8e7a)"><path fill="#ffbd59" d="M 139.535156 29.898438 C 139.535156 30.640625 139.5 31.382812 139.425781 32.121094 C 139.355469 32.859375 139.246094 33.59375 139.101562 34.320312 C 138.957031 35.050781 138.777344 35.769531 138.558594 36.480469 C 138.34375 37.191406 138.09375 37.890625 137.808594 38.574219 C 137.527344 39.261719 137.210938 39.933594 136.859375 40.585938 C 136.507812 41.242188 136.128906 41.878906 135.714844 42.496094 C 135.300781 43.113281 134.859375 43.707031 134.390625 44.28125 C 133.917969 44.855469 133.421875 45.40625 132.894531 45.929688 C 132.371094 46.457031 131.820312 46.953125 131.246094 47.425781 C 130.671875 47.894531 130.078125 48.339844 129.460938 48.75 C 128.84375 49.164062 128.207031 49.542969 127.550781 49.894531 C 126.894531 50.246094 126.226562 50.5625 125.539062 50.847656 C 124.851562 51.128906 124.15625 51.378906 123.445312 51.59375 C 122.734375 51.8125 122.015625 51.992188 121.285156 52.136719 C 120.558594 52.28125 119.824219 52.390625 119.085938 52.460938 C 118.347656 52.535156 117.605469 52.570312 116.863281 52.570312 C 116.121094 52.570312 115.378906 52.535156 114.640625 52.460938 C 113.902344 52.390625 113.167969 52.28125 112.4375 52.136719 C 111.710938 51.992188 110.992188 51.8125 110.28125 51.59375 C 109.570312 51.378906 108.871094 51.128906 108.1875 50.847656 C 107.5 50.5625 106.828125 50.246094 106.175781 49.894531 C 105.519531 49.542969 104.882812 49.164062 104.265625 48.75 C 103.648438 48.339844 103.050781 47.894531 102.476562 47.425781 C 101.90625 46.953125 101.355469 46.457031 100.828125 45.929688 C 100.304688 45.40625 99.804688 44.855469 99.335938 44.28125 C 98.863281 43.707031 98.421875 43.113281 98.011719 42.496094 C 97.597656 41.878906 97.214844 41.242188 96.867188 40.585938 C 96.515625 39.933594 96.199219 39.261719 95.914062 38.574219 C 95.628906 37.890625 95.378906 37.191406 95.164062 36.480469 C 94.949219 35.769531 94.769531 35.050781 94.625 34.320312 C 94.480469 33.59375 94.371094 32.859375 94.296875 32.121094 C 94.226562 31.382812 94.1875 30.640625 94.1875 29.898438 C 94.1875 29.15625 94.226562 28.414062 94.296875 27.675781 C 94.371094 26.9375 94.480469 26.203125 94.625 25.476562 C 94.769531 24.746094 94.949219 24.027344 95.164062 23.316406 C 95.378906 22.605469 95.628906 21.90625 95.914062 21.222656 C 96.199219 20.535156 96.515625 19.863281 96.867188 19.210938 C 97.214844 18.554688 97.597656 17.917969 98.011719 17.300781 C 98.421875 16.683594 98.863281 16.089844 99.335938 15.515625 C 99.804688 14.941406 100.304688 14.390625 100.828125 13.867188 C 101.355469 13.339844 101.90625 12.84375 102.476562 12.371094 C 103.050781 11.898438 103.648438 11.457031 104.265625 11.046875 C 104.882812 10.632812 105.519531 10.25 106.175781 9.902344 C 106.828125 9.550781 107.5 9.234375 108.1875 8.949219 C 108.871094 8.667969 109.570312 8.417969 110.28125 8.199219 C 110.992188 7.984375 111.710938 7.804688 112.4375 7.660156 C 113.167969 7.515625 113.902344 7.40625 114.640625 7.332031 C 115.378906 7.261719 116.121094 7.222656 116.863281 7.222656 C 117.605469 7.222656 118.347656 7.261719 119.085938 7.332031 C 119.824219 7.40625 120.558594 7.515625 121.285156 7.660156 C 122.015625 7.804688 122.734375 7.984375 123.445312 8.199219 C 124.15625 8.417969 124.851562 8.667969 125.539062 8.949219 C 126.226562 9.234375 126.894531 9.550781 127.550781 9.902344 C 128.207031 10.25 128.84375 10.632812 129.460938 11.046875 C 130.078125 11.457031 130.671875 11.898438 131.246094 12.371094 C 131.820312 12.84375 132.371094 13.339844 132.894531 13.867188 C 133.421875 14.390625 133.917969 14.941406 134.390625 15.515625 C 134.859375 16.089844 135.300781 16.683594 135.714844 17.300781 C 136.128906 17.917969 136.507812 18.554688 136.859375 19.210938 C 137.210938 19.863281 137.527344 20.535156 137.808594 21.222656 C 138.09375 21.90625 138.34375 22.605469 138.558594 23.316406 C 138.777344 24.027344 138.957031 24.746094 139.101562 25.476562 C 139.246094 26.203125 139.355469 26.9375 139.425781 27.675781 C 139.5 28.414062 139.535156 29.15625 139.535156 29.898438 Z M 139.535156 29.898438 " fill-opacity="1" fill-rule="nonzero"/></g><g clip-path="url(#2f2139905d)"><path fill="#04182d" d="M 134.675781 77.648438 L 109.167969 77.648438 C 108.738281 77.648438 108.386719 77.296875 108.386719 76.867188 L 108.386719 62.300781 C 108.386719 59.792969 107.222656 57.429688 105.199219 55.820312 C 97.941406 50.050781 94.195312 41.078125 95.179688 31.8125 C 96.535156 19.078125 107.210938 8.808594 120.011719 7.921875 C 127.5625 7.402344 134.761719 9.945312 140.273438 15.085938 C 145.707031 20.15625 148.824219 27.328125 148.824219 34.757812 C 148.824219 43.019531 145.105469 50.703125 138.621094 55.84375 C 136.613281 57.433594 135.460938 59.785156 135.460938 62.300781 L 135.460938 76.867188 C 135.460938 77.296875 135.109375 77.648438 134.675781 77.648438 Z M 109.953125 76.082031 L 133.894531 76.082031 L 133.894531 62.300781 C 133.894531 59.304688 135.261719 56.503906 137.644531 54.613281 C 143.75 49.773438 147.253906 42.535156 147.253906 34.757812 C 147.253906 27.761719 144.320312 21.007812 139.203125 16.234375 C 134.015625 11.390625 127.242188 9 120.121094 9.488281 C 108.066406 10.324219 98.015625 19.992188 96.742188 31.980469 C 95.8125 40.707031 99.339844 49.160156 106.175781 54.59375 C 108.578125 56.5 109.953125 59.308594 109.953125 62.300781 Z M 109.953125 76.082031 " fill-opacity="1" fill-rule="nonzero"/></g><g clip-path="url(#fe7c37fb04)"><path fill="#04182d" d="M 121.734375 82.152344 C 116.164062 82.152344 111.800781 79.832031 111.800781 76.867188 C 111.800781 76.433594 112.152344 76.082031 112.582031 76.082031 C 113.015625 76.082031 113.367188 76.433594 113.367188 76.867188 C 113.367188 78.625 116.804688 80.585938 121.734375 80.585938 C 126.660156 80.585938 130.097656 78.625 130.097656 76.867188 C 130.097656 76.433594 130.449219 76.082031 130.882812 76.082031 C 131.316406 76.082031 131.667969 76.433594 131.667969 76.867188 C 131.667969 79.832031 127.304688 82.152344 121.734375 82.152344 Z M 121.734375 82.152344 " fill-opacity="1" fill-rule="nonzero"/></g><path fill="#04182d" d="M 106.132812 63.085938 C 105.722656 63.085938 105.378906 62.769531 105.351562 62.355469 C 105.320312 61.921875 105.648438 61.546875 106.078125 61.519531 L 137.660156 59.332031 C 138.105469 59.304688 138.46875 59.628906 138.496094 60.058594 C 138.527344 60.492188 138.199219 60.867188 137.769531 60.894531 L 106.1875 63.085938 C 106.167969 63.085938 106.152344 63.085938 106.132812 63.085938 Z M 106.132812 63.085938 " fill-opacity="1" fill-rule="nonzero"/><path fill="#04182d" d="M 106.132812 68.101562 C 105.722656 68.101562 105.378906 67.785156 105.351562 67.375 C 105.320312 66.941406 105.648438 66.566406 106.078125 66.535156 L 137.660156 64.347656 C 138.105469 64.324219 138.46875 64.644531 138.496094 65.078125 C 138.527344 65.507812 138.199219 65.882812 137.769531 65.914062 L 106.1875 68.101562 C 106.167969 68.101562 106.152344 68.101562 106.132812 68.101562 Z M 106.132812 68.101562 " fill-opacity="1" fill-rule="nonzero"/><path fill="#04182d" d="M 106.132812 73.121094 C 105.722656 73.121094 105.378906 72.804688 105.351562 72.390625 C 105.320312 71.957031 105.648438 71.585938 106.078125 71.554688 L 137.660156 69.367188 C 138.105469 69.335938 138.46875 69.660156 138.496094 70.09375 C 138.527344 70.527344 138.199219 70.902344 137.769531 70.929688 L 106.1875 73.121094 C 106.167969 73.121094 106.152344 73.121094 106.132812 73.121094 Z M 106.132812 73.121094 " fill-opacity="1" fill-rule="nonzero"/><path stroke-linecap="butt" transform="matrix(0.495626, 0, 0, 0.495626, 94.121487, 58.209951)" fill="none" stroke-linejoin="miter" d="M 56.398805 58.167033 C 42.953065 58.167033 36.025277 66.73416 36.025277 79.785828 L 36.025277 183.426791 C 36.025277 196.076505 42.953065 205.045586 56.398805 205.045586 C 69.891834 205.045586 76.819621 196.076505 76.819621 183.426791 L 76.819621 79.785828 C 76.819621 66.73416 69.891834 58.167033 56.398805 58.167033 Z M 56.398805 58.167033 " stroke="#000000" stroke-width="3.697518" stroke-opacity="1" stroke-miterlimit="4"/><g fill="#ffde59" fill-opacity="1"><g transform="translate(339.01667, 167.166494)"><g><path d="M -52.972656 -10.445312 C -52.972656 -5.519531 -49.839844 -2.984375 -45.066406 -2.984375 L -7.164062 -2.984375 C -2.535156 -2.984375 0.746094 -5.519531 0.746094 -10.445312 C 0.746094 -15.371094 -2.535156 -17.90625 -7.164062 -17.90625 L -45.066406 -17.90625 C -49.839844 -17.90625 -52.972656 -15.371094 -52.972656 -10.445312 Z M -52.972656 -10.445312 "/></g></g></g><g fill="#5ce1e6" fill-opacity="1"><g transform="translate(132.37435, 162.499909)"><g><path d="M 12.285156 -62.292969 C 6.492188 -62.292969 3.507812 -58.609375 3.507812 -52.992188 L 3.507812 -8.421875 C 3.507812 -2.984375 6.492188 0.878906 12.285156 0.878906 C 18.074219 0.878906 21.058594 -2.984375 21.058594 -8.421875 L 21.058594 -52.992188 C 21.058594 -58.609375 18.074219 -62.292969 12.285156 -62.292969 Z M 12.285156 -62.292969 "/></g></g></g><g fill="#ff8bd2" fill-opacity="1"><g transform="translate(200.143076, 132.390513)"><g><path d="M 35.957031 -51.519531 C 30.710938 -53.828125 26.539062 -51.679688 24.300781 -46.59375 L 6.535156 -6.230469 C 4.367188 -1.300781 5.53125 3.382812 10.773438 5.691406 C 16.019531 8 20.257812 5.691406 22.425781 0.765625 L 40.195312 -39.597656 C 42.433594 -44.683594 41.199219 -49.210938 35.957031 -51.519531 Z M 35.957031 -51.519531 "/></g></g></g><g fill="#cb6ce6" fill-opacity="1"><g transform="translate(49.819186, 141.009623)"><g><path d="M -12.164062 -59.007812 C -17.226562 -56.878906 -18.484375 -52.558594 -16.417969 -47.644531 L -0.0273438 -8.660156 C 1.972656 -3.898438 6 -1.621094 11.066406 -3.75 C 16.132812 -5.878906 17.320312 -10.351562 15.320312 -15.109375 L -1.066406 -54.097656 C -3.132812 -59.011719 -7.097656 -61.136719 -12.164062 -59.007812 Z M -12.164062 -59.007812 "/></g></g></g><path stroke-linecap="butt" transform="matrix(0.495626, 0, 0, 0.495626, 39.888895, 55.554332)" fill="none" stroke-linejoin="miter" d="M 24.443843 57.519482 C 12.219726 57.519482 2.036903 67.702305 2.036903 79.871251 C 2.036903 83.149931 2.832929 86.381322 4.472269 89.660002 L 52.123467 191.023228 C 55.74893 198.723397 63.102316 203.641417 71.645799 204.035489 C 72.039871 204.035489 72.244789 204.035489 72.638861 204.035489 C 81.182344 204.035489 88.937683 198.967721 92.413399 191.023228 L 140.009427 89.660002 C 141.648767 86.381322 142.444793 83.149931 142.444793 79.871251 C 142.444793 67.702305 132.261969 57.519482 120.085142 57.519482 C 110.698344 57.519482 103.392247 61.586306 99.719495 70.531742 L 72.039871 139.297324 L 44.770082 70.531742 C 41.089448 61.586306 33.783352 57.519482 24.443843 57.519482 Z M 300.98788 135.025582 C 315.001084 129.957815 323.544567 117.536663 323.544567 98.211367 C 323.544567 72.171082 308.096941 59.552894 280.81927 59.552894 L 225.869856 59.552894 C 210.808421 59.552894 203.510205 68.892403 203.510205 83.149931 L 203.510205 180.438451 C 203.510205 194.69598 210.808421 204.035489 225.869856 204.035489 C 240.970699 204.035489 248.276796 194.69598 248.276796 180.438451 L 248.276796 148.290049 C 255.575011 148.290049 260.894984 150.331343 264.567736 156.392172 L 287.329341 193.05664 C 291.404046 199.566711 298.757432 204.035489 306.457601 204.035489 C 318.681717 204.035489 328.86454 194.246738 328.86454 182.077791 C 328.86454 177.553844 327.619273 173.534308 325.183907 169.853675 L 309.736281 145.011369 C 307.300915 140.936664 304.416307 137.705273 300.98788 135.025582 Z M 248.276796 113.264921 L 248.276796 94.136661 L 268.642442 94.136661 C 274.703271 94.136661 278.777976 97.809413 278.777976 103.925412 C 278.777976 110.03353 274.703271 113.264921 268.642442 113.264921 Z M 403.320523 57.519482 C 402.926451 57.519482 402.729415 57.519482 402.327461 57.519482 C 393.783978 57.519482 386.028639 62.587249 382.600212 70.531742 L 334.956895 171.887087 C 333.317555 175.118478 332.521529 178.397158 332.521529 181.628549 C 332.521529 193.852666 342.704353 204.035489 354.928469 204.035489 C 364.267978 204.035489 372.023317 199.960783 375.246827 191.023228 L 380.763836 175.56772 L 424.931437 175.56772 L 430.204122 191.023228 C 433.482802 199.960783 441.18297 204.035489 450.569768 204.035489 C 462.746596 204.035489 472.929419 193.852666 472.929419 181.628549 C 472.929419 178.397158 472.133393 175.118478 470.494053 171.887087 L 422.898025 70.531742 C 419.225273 62.784285 411.871888 57.913554 403.320523 57.519482 Z M 412.912238 140.936664 L 392.735746 140.936664 L 402.926451 112.066942 Z M 505.471893 57.519482 C 490.418339 57.519482 483.120123 66.85899 483.120123 81.116519 L 483.120123 178.397158 C 483.120123 192.662568 490.418339 202.002077 505.471893 202.002077 L 573.047377 202.002077 C 584.026225 202.002077 593.018951 193.05664 593.018951 182.077791 C 593.018951 171.043772 584.026225 162.106217 573.047377 162.106217 L 527.886714 162.106217 L 527.886714 81.116519 C 527.886714 66.85899 520.580617 57.519482 505.471893 57.519482 Z M 505.471893 57.519482 " stroke="#000000" stroke-width="3.688709" stroke-opacity="1" stroke-miterlimit="4"/><path fill="#000000" d="M 124.28125 36.414062 L 129.386719 40.5 L 125.355469 35.324219 L 124.394531 35.4375 L 124.28125 36.414062 " fill-opacity="1" fill-rule="nonzero"/><path fill="#000000" d="M 120.347656 30.246094 L 115.246094 26.164062 L 119.273438 31.335938 L 120.238281 31.222656 L 120.347656 30.246094 " fill-opacity="1" fill-rule="nonzero"/><path fill="#000000" d="M 119.277344 35.324219 L 115.246094 40.5 L 120.351562 36.417969 L 120.238281 35.4375 L 119.277344 35.324219 " fill-opacity="1" fill-rule="nonzero"/><path fill="#000000" d="M 125.359375 31.335938 L 129.386719 26.164062 L 124.28125 30.25 L 124.394531 31.222656 L 125.359375 31.335938 " fill-opacity="1" fill-rule="nonzero"/><path fill="#000000" d="M 109.972656 34.214844 L 109.195312 34.121094 C 109.28125 35.640625 109.621094 37.113281 110.203125 38.511719 C 110.535156 39.300781 110.941406 40.0625 111.417969 40.777344 C 111.886719 41.480469 112.425781 42.144531 113.019531 42.746094 C 113.613281 43.351562 114.269531 43.898438 114.964844 44.375 C 115.667969 44.855469 116.417969 45.269531 117.195312 45.601562 C 118.578125 46.195312 120.035156 46.539062 121.535156 46.625 L 121.445312 45.835938 C 115.316406 45.40625 110.402344 40.425781 109.972656 34.214844 " fill-opacity="1" fill-rule="nonzero"/><path fill="#000000" d="M 123.1875 45.835938 L 123.09375 46.625 C 124.589844 46.535156 126.042969 46.195312 127.425781 45.601562 C 128.203125 45.269531 128.953125 44.855469 129.65625 44.375 C 130.351562 43.898438 131.007812 43.351562 131.601562 42.746094 C 132.195312 42.144531 132.734375 41.480469 133.203125 40.777344 C 133.679688 40.0625 134.085938 39.300781 134.417969 38.511719 C 135 37.113281 135.339844 35.640625 135.425781 34.121094 L 134.648438 34.214844 C 134.21875 40.421875 129.3125 45.398438 123.1875 45.835938 " fill-opacity="1" fill-rule="nonzero"/><path fill="#000000" d="M 121.445312 20.820312 L 121.535156 20.03125 C 120.035156 20.117188 118.578125 20.460938 117.195312 21.054688 C 116.417969 21.386719 115.667969 21.800781 114.964844 22.28125 C 114.269531 22.757812 113.613281 23.308594 113.019531 23.910156 C 112.425781 24.511719 111.886719 25.175781 111.417969 25.878906 C 110.941406 26.59375 110.535156 27.355469 110.203125 28.144531 C 109.621094 29.542969 109.28125 31.019531 109.195312 32.539062 L 109.972656 32.449219 C 110.398438 26.234375 115.3125 21.25 121.445312 20.820312 " fill-opacity="1" fill-rule="nonzero"/><path fill="#000000" d="M 134.648438 32.445312 L 135.425781 32.539062 C 135.339844 31.019531 135 29.542969 134.417969 28.144531 C 134.085938 27.355469 133.679688 26.59375 133.203125 25.878906 C 132.734375 25.175781 132.195312 24.511719 131.601562 23.910156 C 131.007812 23.308594 130.351562 22.757812 129.65625 22.28125 C 128.953125 21.800781 128.203125 21.386719 127.425781 21.054688 C 126.042969 20.464844 124.589844 20.121094 123.09375 20.03125 L 123.1875 20.820312 C 129.3125 21.257812 134.21875 26.234375 134.648438 32.445312 " fill-opacity="1" fill-rule="nonzero"/><path fill="#000000" d="M 139.40625 33.332031 L 135.441406 32.855469 L 134.667969 32.765625 L 125.335938 31.652344 L 124.117188 31.503906 L 123.972656 30.269531 L 122.839844 20.503906 L 122.78125 20.015625 L 122.316406 16.003906 L 121.847656 20.015625 L 121.796875 20.480469 L 120.660156 30.265625 L 120.515625 31.503906 L 119.296875 31.652344 L 109.953125 32.765625 L 109.671875 32.800781 L 105.222656 33.332031 L 109.179688 33.804688 L 109.953125 33.894531 L 119.296875 35.011719 L 120.515625 35.15625 L 120.660156 36.390625 L 122.316406 50.660156 L 122.855469 45.992188 L 122.875 45.855469 L 123.972656 36.390625 L 124.117188 35.15625 L 125.335938 35.011719 L 134.664062 33.894531 L 135.441406 33.804688 L 139.40625 33.332031 " fill-opacity="1" fill-rule="nonzero"/><g clip-path="url(#76b33a9af1)"><path fill="#000000" d="M 120.542969 11.644531 L 121.609375 11.644531 L 123 13.71875 L 123 11.644531 L 124.078125 11.644531 L 124.078125 15.390625 L 123 15.390625 L 121.617188 13.332031 L 121.617188 15.390625 L 120.542969 15.390625 L 120.542969 11.644531 " fill-opacity="1" fill-rule="nonzero"/></g><g clip-path="url(#d829c319ea)"><path fill="#000000" d="M 120.640625 53.839844 L 121.726562 53.773438 C 121.75 53.949219 121.796875 54.085938 121.871094 54.179688 C 121.988281 54.332031 122.15625 54.40625 122.375 54.40625 C 122.535156 54.40625 122.660156 54.367188 122.75 54.292969 C 122.839844 54.214844 122.882812 54.125 122.882812 54.023438 C 122.882812 53.925781 122.839844 53.835938 122.757812 53.761719 C 122.671875 53.683594 122.476562 53.613281 122.171875 53.542969 C 121.671875 53.429688 121.316406 53.277344 121.101562 53.089844 C 120.886719 52.902344 120.777344 52.660156 120.777344 52.367188 C 120.777344 52.175781 120.832031 51.992188 120.945312 51.820312 C 121.054688 51.648438 121.21875 51.515625 121.441406 51.417969 C 121.660156 51.320312 121.964844 51.269531 122.347656 51.269531 C 122.820312 51.269531 123.179688 51.359375 123.429688 51.539062 C 123.675781 51.714844 123.824219 52 123.871094 52.386719 L 122.792969 52.449219 C 122.765625 52.28125 122.707031 52.160156 122.613281 52.082031 C 122.523438 52.007812 122.394531 51.96875 122.234375 51.96875 C 122.101562 51.96875 122.003906 51.996094 121.933594 52.054688 C 121.867188 52.109375 121.835938 52.179688 121.835938 52.261719 C 121.835938 52.320312 121.863281 52.375 121.917969 52.421875 C 121.972656 52.472656 122.097656 52.519531 122.300781 52.5625 C 122.800781 52.667969 123.15625 52.78125 123.371094 52.890625 C 123.589844 53.003906 123.746094 53.140625 123.84375 53.308594 C 123.941406 53.472656 123.992188 53.65625 123.992188 53.859375 C 123.992188 54.101562 123.925781 54.324219 123.792969 54.523438 C 123.664062 54.726562 123.480469 54.882812 123.246094 54.984375 C 123.011719 55.089844 122.714844 55.144531 122.355469 55.144531 C 121.726562 55.144531 121.292969 55.019531 121.050781 54.777344 C 120.808594 54.53125 120.671875 54.21875 120.640625 53.839844 " fill-opacity="1" fill-rule="nonzero"/></g><g clip-path="url(#124e2aa88c)"><path fill="#000000" d="M 99.640625 31.457031 L 100.722656 31.457031 L 101.113281 33.550781 L 101.683594 31.457031 L 102.765625 31.457031 L 103.335938 33.550781 L 103.730469 31.457031 L 104.808594 31.457031 L 103.992188 35.199219 L 102.875 35.199219 L 102.226562 32.84375 L 101.582031 35.199219 L 100.460938 35.199219 L 99.640625 31.457031 " fill-opacity="1" fill-rule="nonzero"/></g><g clip-path="url(#ca058beb8e)"><path fill="#000000" d="M 140.011719 31.457031 L 143.070312 31.457031 L 143.070312 32.253906 L 141.15625 32.253906 L 141.15625 32.851562 L 142.929688 32.851562 L 142.929688 33.613281 L 141.15625 33.613281 L 141.15625 34.351562 L 143.125 34.351562 L 143.125 35.199219 L 140.011719 35.199219 L 140.011719 31.457031 " fill-opacity="1" fill-rule="nonzero"/></g><path stroke-linecap="butt" transform="matrix(0.75, 0, 0, 0.75, -23.713975, 164.288749)" fill="none" stroke-linejoin="miter" d="M 86.550929 12.500419 C 83.806137 12.500419 81.509262 14.708752 81.509262 17.453544 L 81.509262 40.40667 C 81.509262 43.161878 83.806137 45.458754 86.550929 45.458754 C 89.311346 45.458754 91.608221 43.161878 91.608221 40.40667 L 91.608221 30.130628 L 101.983221 43.620212 C 102.899888 44.818129 104.368638 45.370212 105.837388 45.370212 C 108.58218 45.370212 110.879055 43.161878 110.879055 40.40667 L 110.879055 17.453544 C 110.879055 14.708752 108.58218 12.411877 105.837388 12.411877 C 102.993638 12.411877 100.785305 14.708752 100.785305 17.453544 L 100.785305 27.745211 L 90.405096 14.250419 C 89.498846 13.052502 88.019679 12.500419 86.550929 12.500419 Z M 86.550929 12.500419 " stroke="#000000" stroke-width="3.442965" stroke-opacity="1" stroke-miterlimit="4"/><path stroke-linecap="butt" transform="matrix(0.75, 0, 0, 0.75, -23.713975, 164.288749)" fill="none" stroke-linejoin="miter" d="M 119.597806 12.870211 C 116.201972 12.870211 114.556139 14.979586 114.556139 18.193127 L 114.556139 39.677503 C 114.556139 42.891045 116.201972 45.00042 119.597806 45.00042 L 135.488431 45.00042 C 137.597806 45.00042 139.342598 43.25042 139.342598 41.146253 C 139.342598 39.036878 137.597806 37.198337 135.488431 37.198337 L 124.655097 37.198337 L 124.655097 32.885836 L 130.894681 32.885836 C 133.004056 32.885836 134.748848 31.047295 134.748848 28.932711 C 134.748848 26.823336 133.004056 24.984794 130.894681 24.984794 L 124.655097 24.984794 L 124.655097 20.672294 L 135.488431 20.672294 C 137.597806 20.672294 139.342598 18.833752 139.342598 16.729586 C 139.342598 14.609794 137.597806 12.870211 135.488431 12.870211 Z M 119.597806 12.870211 " stroke="#000000" stroke-width="3.442965" stroke-opacity="1" stroke-miterlimit="4"/><path stroke-linecap="butt" transform="matrix(0.75, 0, 0, 0.75, -23.713975, 164.288749)" fill="none" stroke-linejoin="miter" d="M 145.759265 12.411877 C 143.004057 12.411877 140.894681 14.708752 140.894681 17.453544 C 140.894681 18.016044 140.894681 18.562919 141.076973 19.026461 L 148.785307 41.974378 C 149.52489 43.901462 151.451974 45.458754 153.467599 45.458754 C 155.58739 45.458754 157.873849 44.260837 158.436349 41.974378 L 161.280099 29.948336 L 164.217599 41.974378 C 164.764474 44.260837 167.061349 45.458754 169.082183 45.458754 C 170.915516 45.458754 173.024891 44.260837 173.764474 41.974378 L 181.56135 18.833752 C 181.6551 18.375419 181.743641 17.917086 181.743641 17.453544 C 181.743641 14.708752 179.457183 12.411877 176.701975 12.411877 C 173.941558 12.411877 172.478016 13.599377 171.925933 15.896252 L 168.988433 27.922294 L 166.144682 15.896252 C 165.592599 13.599377 163.665516 12.411877 161.368641 12.411877 C 159.071766 12.411877 157.05614 13.599377 156.509265 15.896252 L 153.561349 27.922294 L 150.722807 15.896252 C 150.165515 13.599377 148.33739 12.411877 145.759265 12.411877 Z M 145.759265 12.411877 " stroke="#000000" stroke-width="3.442965" stroke-opacity="1" stroke-miterlimit="4"/><path stroke-linecap="butt" transform="matrix(0.75, 0, 0, 0.75, -23.713975, 164.288749)" fill="none" stroke-linejoin="miter" d="M 195.972809 12.411877 C 188.165517 12.411877 184.49885 16.536877 184.49885 22.510836 C 184.49885 28.010836 187.066558 30.958753 191.8426 32.234795 L 196.894684 33.526461 C 198.910309 34.073336 199.191559 35.083753 199.191559 35.823336 C 199.191559 36.740003 198.540517 37.661878 196.701975 37.661878 C 194.139475 37.661878 191.931142 37.099378 189.363433 35.453545 C 188.62385 34.995211 187.894683 34.901461 187.259267 34.901461 C 184.962392 34.901461 183.300933 36.458753 183.300933 38.755628 C 183.300933 39.677503 183.670725 40.68792 184.49885 41.516045 C 187.259267 44.260837 191.74885 45.458754 196.894684 45.458754 C 205.332184 45.458754 209.290518 41.057712 209.290518 35.365003 C 209.290518 29.672295 206.988434 27.005628 201.936351 25.625419 L 196.894684 24.349378 C 195.056142 23.885836 194.597809 22.969169 194.597809 22.052503 C 194.597809 20.953544 195.514475 20.213961 196.894684 20.213961 C 198.733225 20.213961 200.097809 20.760836 201.936351 22.229586 C 202.675934 22.792086 203.504059 22.969169 204.233226 22.969169 C 206.800934 22.969169 208.087393 21.411878 208.087393 19.115002 C 208.087393 18.193127 207.821768 17.276461 207.170726 16.536877 C 205.155101 14.151461 200.467601 12.411877 195.972809 12.411877 Z M 195.972809 12.411877 " stroke="#000000" stroke-width="3.442965" stroke-opacity="1" stroke-miterlimit="4"/><path stroke-linecap="butt" transform="matrix(0.75, 0, 0, 0.75, -23.713975, 164.288749)" fill="none" stroke-linejoin="miter" d="M 224.16031 12.411877 C 216.353018 12.411877 212.686351 16.536877 212.686351 22.510836 C 212.686351 28.010836 215.25406 30.958753 220.030101 32.234795 L 225.082185 33.526461 C 227.09781 34.073336 227.37906 35.083753 227.37906 35.823336 C 227.37906 36.740003 226.728018 37.661878 224.889477 37.661878 C 222.326976 37.661878 220.118643 37.099378 217.550935 35.453545 C 216.811351 34.995211 216.082185 34.901461 215.446768 34.901461 C 213.149893 34.901461 211.488434 36.458753 211.488434 38.755628 C 211.488434 39.677503 211.858226 40.68792 212.686351 41.516045 C 215.446768 44.260837 219.936351 45.458754 225.082185 45.458754 C 233.519685 45.458754 237.478019 41.057712 237.478019 35.365003 C 237.478019 29.672295 235.175935 27.005628 230.123852 25.625419 L 225.082185 24.349378 C 223.243643 23.885836 222.78531 22.969169 222.78531 22.052503 C 222.78531 20.953544 223.701977 20.213961 225.082185 20.213961 C 226.920727 20.213961 228.28531 20.760836 230.123852 22.229586 C 230.863435 22.792086 231.69156 22.969169 232.420727 22.969169 C 234.988435 22.969169 236.274894 21.411878 236.274894 19.115002 C 236.274894 18.193127 236.009269 17.276461 235.358227 16.536877 C 233.342602 14.151461 228.655102 12.411877 224.16031 12.411877 Z M 259.681145 24.437919 L 250.504061 24.437919 L 250.504061 17.734794 C 250.504061 14.521252 248.853019 12.411877 245.446769 12.411877 C 242.050936 12.411877 240.405102 14.521252 240.405102 17.734794 L 240.405102 40.135837 C 240.405102 43.354587 242.050936 45.458754 245.446769 45.458754 C 248.853019 45.458754 250.504061 43.354587 250.504061 40.135837 L 250.504061 33.43792 L 259.681145 33.43792 L 259.681145 40.135837 C 259.681145 43.354587 261.337395 45.458754 264.733228 45.458754 C 268.129062 45.458754 269.774895 43.354587 269.774895 40.135837 L 269.774895 17.734794 C 269.774895 14.521252 268.129062 12.411877 264.733228 12.411877 C 261.337395 12.411877 259.681145 14.521252 259.681145 17.734794 Z M 288.035313 12.411877 C 287.946771 12.411877 287.899896 12.411877 287.811354 12.411877 C 285.884271 12.411877 284.139479 13.557711 283.363437 15.349377 L 272.618645 38.208753 C 272.248854 38.93792 272.066562 39.677503 272.066562 40.40667 C 272.066562 43.161878 274.363437 45.458754 277.123854 45.458754 C 279.228021 45.458754 280.978021 44.542087 281.707187 42.521253 L 282.946771 39.036878 L 292.910313 39.036878 L 294.097813 42.521253 C 294.837396 44.542087 296.57698 45.458754 298.691563 45.458754 C 301.441563 45.458754 303.738438 43.161878 303.738438 40.40667 C 303.738438 39.677503 303.556147 38.93792 303.186355 38.208753 L 292.451979 15.349377 C 291.623854 13.599377 289.962396 12.500419 288.035313 12.411877 Z M 290.201979 31.229586 L 285.649896 31.229586 L 287.946771 24.719169 Z M 328.014481 29.896253 C 331.175939 28.75042 333.103023 25.948336 333.103023 21.588961 C 333.103023 15.719169 329.618648 12.870211 323.467606 12.870211 L 311.071772 12.870211 C 307.675938 12.870211 306.030105 14.979586 306.030105 18.193127 L 306.030105 40.135837 C 306.030105 43.354587 307.675938 45.458754 311.071772 45.458754 C 314.478022 45.458754 316.123855 43.354587 316.123855 40.135837 L 316.123855 32.885836 C 317.774897 32.885836 318.972814 33.34417 319.800939 34.713961 L 324.931147 42.984795 C 325.853022 44.448337 327.509273 45.458754 329.248856 45.458754 C 332.004064 45.458754 334.300939 43.25042 334.300939 40.505628 C 334.300939 39.484795 334.019689 38.578545 333.472814 37.75042 L 329.988439 32.146253 C 329.436356 31.229586 328.790523 30.50042 328.014481 29.896253 Z M 316.123855 24.984794 L 316.123855 20.672294 L 320.717606 20.672294 C 322.087397 20.672294 323.004064 21.500419 323.004064 22.880628 C 323.004064 24.255628 322.087397 24.984794 320.717606 24.984794 Z M 341.540523 12.870211 C 338.149898 12.870211 336.498856 14.979586 336.498856 18.193127 L 336.498856 39.677503 C 336.498856 42.891045 338.149898 45.00042 341.540523 45.00042 L 357.431149 45.00042 C 359.540524 45.00042 361.285316 43.25042 361.285316 41.146253 C 361.285316 39.036878 359.540524 37.198337 357.431149 37.198337 L 346.597815 37.198337 L 346.597815 32.885836 L 352.837399 32.885836 C 354.946774 32.885836 356.691565 31.047295 356.691565 28.932711 C 356.691565 26.823336 354.946774 24.984794 352.837399 24.984794 L 346.597815 24.984794 L 346.597815 20.672294 L 357.431149 20.672294 C 359.540524 20.672294 361.285316 18.833752 361.285316 16.729586 C 361.285316 14.609794 359.540524 12.870211 357.431149 12.870211 Z M 363.478024 40.40667 C 363.478024 43.354587 365.686357 45.458754 368.623858 45.458754 C 371.556149 45.458754 373.576983 43.354587 373.576983 40.40667 C 373.576983 37.46917 371.556149 35.365003 368.623858 35.365003 C 365.686357 35.365003 363.478024 37.46917 363.478024 40.40667 Z M 393.49365 12.411877 C 382.941567 12.411877 375.780108 18.833752 375.780108 28.932711 C 375.780108 39.036878 382.941567 45.458754 393.49365 45.458754 C 398.092609 45.458754 401.946776 43.81292 404.420734 41.78167 C 405.519692 40.865003 406.170734 39.677503 406.170734 38.208753 C 406.170734 35.453545 404.509276 33.807711 401.576984 33.807711 C 400.655109 33.807711 400.108234 33.984795 399.368651 34.443128 C 397.353025 35.823336 395.701984 36.552503 393.49365 36.552503 C 388.910317 36.552503 385.873858 33.703545 385.873858 28.932711 C 385.873858 24.156669 388.910317 21.312919 393.49365 21.312919 C 395.701984 21.312919 397.353025 22.052503 399.368651 23.427503 C 400.108234 23.885836 400.655109 24.068128 401.576984 24.068128 C 404.509276 24.068128 406.170734 22.422294 406.170734 19.661877 C 406.170734 18.193127 405.519692 16.995211 404.420734 16.088961 C 401.946776 14.057711 398.092609 12.411877 393.49365 12.411877 Z M 426.165527 21.312919 C 430.941569 21.312919 433.790527 24.349378 433.790527 28.932711 C 433.790527 33.526461 430.941569 36.458753 426.165527 36.458753 C 421.394693 36.458753 418.649901 33.526461 418.649901 28.932711 C 418.649901 24.349378 421.394693 21.312919 426.165527 21.312919 Z M 426.165527 12.411877 C 414.972818 12.411877 408.540526 19.380627 408.540526 28.932711 C 408.540526 38.479587 414.972818 45.458754 426.165527 45.458754 C 437.37386 45.458754 443.884277 38.479587 443.884277 28.932711 C 443.884277 19.380627 437.37386 12.411877 426.165527 12.411877 Z M 453.431153 12.411877 C 450.853028 12.411877 448.748861 14.338961 448.467611 16.818127 L 446.170736 39.948337 C 446.170736 40.135837 446.082194 40.318128 446.082194 40.505628 C 446.082194 43.354587 448.196778 45.458754 451.045736 45.458754 C 453.701986 45.458754 455.717611 43.620212 455.998861 40.963962 L 456.826986 30.588961 L 460.03532 38.297295 C 460.681153 39.948337 462.149903 40.865003 464.259278 40.865003 C 466.28532 40.865003 467.842612 39.948337 468.483237 38.297295 L 471.696779 30.588961 L 472.530112 40.963962 C 472.795737 43.620212 474.811362 45.458754 477.483237 45.458754 C 480.326987 45.458754 482.436362 43.354587 482.436362 40.505628 C 482.436362 40.318128 482.342612 40.135837 482.342612 39.948337 L 480.045737 16.818127 C 479.780112 14.250419 477.571779 12.411877 475.00407 12.411877 C 473.25407 12.411877 471.608237 13.333752 470.868654 14.891044 L 464.259278 28.380628 L 457.644695 14.891044 C 456.915528 13.333752 455.358236 12.411877 453.431153 12.411877 Z M 453.431153 12.411877 " stroke="#000000" stroke-width="3.442965" stroke-opacity="1" stroke-miterlimit="4"/><g fill="#cb6ce6" fill-opacity="1"><g transform="translate(36.039928, 198.038747)"><g><path d="M 5.164062 -24.371094 C 3.097656 -24.371094 1.378906 -22.71875 1.378906 -20.65625 L 1.378906 -3.441406 C 1.378906 -1.378906 3.097656 0.34375 5.164062 0.34375 C 7.230469 0.34375 8.949219 -1.378906 8.949219 -3.441406 L 8.949219 -11.152344 L 16.730469 -1.03125 C 17.417969 -0.136719 18.519531 0.277344 19.621094 0.277344 C 21.6875 0.277344 23.410156 -1.378906 23.410156 -3.441406 L 23.410156 -20.65625 C 23.410156 -22.71875 21.6875 -24.441406 19.621094 -24.441406 C 17.488281 -24.441406 15.835938 -22.71875 15.835938 -20.65625 L 15.835938 -12.945312 L 8.054688 -23.066406 C 7.367188 -23.960938 6.265625 -24.371094 5.164062 -24.371094 Z M 5.164062 -24.371094 "/></g></g></g><g fill="#5ce1e6" fill-opacity="1"><g transform="translate(60.825084, 198.038747)"><g><path d="M 5.164062 -24.097656 C 2.617188 -24.097656 1.378906 -22.515625 1.378906 -20.105469 L 1.378906 -3.992188 C 1.378906 -1.582031 2.617188 0 5.164062 0 L 17.074219 0 C 18.660156 0 19.964844 -1.308594 19.964844 -2.890625 C 19.964844 -4.476562 18.660156 -5.851562 17.074219 -5.851562 L 8.949219 -5.851562 L 8.949219 -9.089844 L 13.632812 -9.089844 C 15.214844 -9.089844 16.523438 -10.464844 16.523438 -12.046875 C 16.523438 -13.632812 15.214844 -15.007812 13.632812 -15.007812 L 8.949219 -15.007812 L 8.949219 -18.246094 L 17.074219 -18.246094 C 18.660156 -18.246094 19.964844 -19.621094 19.964844 -21.207031 C 19.964844 -22.789062 18.660156 -24.097656 17.074219 -24.097656 Z M 5.164062 -24.097656 "/></g></g></g><g fill="#ff8bd2" fill-opacity="1"><g transform="translate(81.614145, 198.038747)"><g><path d="M 3.992188 -24.441406 C 1.929688 -24.441406 0.34375 -22.71875 0.34375 -20.65625 C 0.34375 -20.242188 0.34375 -19.828125 0.480469 -19.484375 L 6.265625 -2.273438 C 6.816406 -0.828125 8.261719 0.34375 9.777344 0.34375 C 11.359375 0.34375 13.082031 -0.550781 13.496094 -2.273438 L 15.628906 -11.292969 L 17.832031 -2.273438 C 18.246094 -0.550781 19.964844 0.34375 21.480469 0.34375 C 22.859375 0.34375 24.441406 -0.550781 24.992188 -2.273438 L 30.84375 -19.621094 C 30.914062 -19.964844 30.984375 -20.3125 30.984375 -20.65625 C 30.984375 -22.71875 29.261719 -24.441406 27.195312 -24.441406 C 25.128906 -24.441406 24.027344 -23.546875 23.617188 -21.824219 L 21.414062 -12.804688 L 19.277344 -21.824219 C 18.863281 -23.546875 17.417969 -24.441406 15.699219 -24.441406 C 13.976562 -24.441406 12.460938 -23.546875 12.046875 -21.824219 L 9.84375 -12.804688 L 7.710938 -21.824219 C 7.296875 -23.546875 5.921875 -24.441406 3.992188 -24.441406 Z M 3.992188 -24.441406 "/></g></g></g><g fill="#ffbd59" fill-opacity="1"><g transform="translate(112.938366, 198.038747)"><g><path d="M 10.328125 -24.441406 C 4.476562 -24.441406 1.722656 -21.34375 1.722656 -16.867188 C 1.722656 -12.738281 3.648438 -10.535156 7.230469 -9.570312 L 11.015625 -8.605469 C 12.53125 -8.191406 12.738281 -7.4375 12.738281 -6.886719 C 12.738281 -6.195312 12.253906 -5.507812 10.878906 -5.507812 C 8.949219 -5.507812 7.296875 -5.921875 5.371094 -7.160156 C 4.820312 -7.503906 4.269531 -7.574219 3.785156 -7.574219 C 2.066406 -7.574219 0.828125 -6.402344 0.828125 -4.683594 C 0.828125 -3.992188 1.101562 -3.234375 1.722656 -2.617188 C 3.785156 -0.550781 7.160156 0.34375 11.015625 0.34375 C 17.351562 0.34375 20.3125 -2.960938 20.3125 -7.230469 C 20.3125 -11.496094 18.589844 -13.496094 14.804688 -14.527344 L 11.015625 -15.492188 C 9.640625 -15.835938 9.292969 -16.523438 9.292969 -17.210938 C 9.292969 -18.039062 9.984375 -18.589844 11.015625 -18.589844 C 12.394531 -18.589844 13.425781 -18.175781 14.804688 -17.074219 C 15.355469 -16.660156 15.972656 -16.523438 16.523438 -16.523438 C 18.453125 -16.523438 19.414062 -17.695312 19.414062 -19.414062 C 19.414062 -20.105469 19.210938 -20.792969 18.726562 -21.34375 C 17.210938 -23.132812 13.699219 -24.441406 10.328125 -24.441406 Z M 10.328125 -24.441406 "/></g></g></g><g fill="#ffde59" fill-opacity="1"><g transform="translate(134.078991, 198.038747)"><g><path d="M 10.328125 -24.441406 C 4.476562 -24.441406 1.722656 -21.34375 1.722656 -16.867188 C 1.722656 -12.738281 3.648438 -10.535156 7.230469 -9.570312 L 11.015625 -8.605469 C 12.53125 -8.191406 12.738281 -7.4375 12.738281 -6.886719 C 12.738281 -6.195312 12.253906 -5.507812 10.878906 -5.507812 C 8.949219 -5.507812 7.296875 -5.921875 5.371094 -7.160156 C 4.820312 -7.503906 4.269531 -7.574219 3.785156 -7.574219 C 2.066406 -7.574219 0.828125 -6.402344 0.828125 -4.683594 C 0.828125 -3.992188 1.101562 -3.234375 1.722656 -2.617188 C 3.785156 -0.550781 7.160156 0.34375 11.015625 0.34375 C 17.351562 0.34375 20.3125 -2.960938 20.3125 -7.230469 C 20.3125 -11.496094 18.589844 -13.496094 14.804688 -14.527344 L 11.015625 -15.492188 C 9.640625 -15.835938 9.292969 -16.523438 9.292969 -17.210938 C 9.292969 -18.039062 9.984375 -18.589844 11.015625 -18.589844 C 12.394531 -18.589844 13.425781 -18.175781 14.804688 -17.074219 C 15.355469 -16.660156 15.972656 -16.523438 16.523438 -16.523438 C 18.453125 -16.523438 19.414062 -17.695312 19.414062 -19.414062 C 19.414062 -20.105469 19.210938 -20.792969 18.726562 -21.34375 C 17.210938 -23.132812 13.699219 -24.441406 10.328125 -24.441406 Z M 10.328125 -24.441406 "/></g></g></g><g fill="#ffde59" fill-opacity="1"><g transform="translate(155.211593, 198.038747)"><g><path d="M 15.835938 -15.421875 L 8.949219 -15.421875 L 8.949219 -20.449219 C 8.949219 -22.859375 7.710938 -24.441406 5.164062 -24.441406 C 2.617188 -24.441406 1.378906 -22.859375 1.378906 -20.449219 L 1.378906 -3.648438 C 1.378906 -1.238281 2.617188 0.34375 5.164062 0.34375 C 7.710938 0.34375 8.949219 -1.238281 8.949219 -3.648438 L 8.949219 -8.675781 L 15.835938 -8.675781 L 15.835938 -3.648438 C 15.835938 -1.238281 17.074219 0.34375 19.621094 0.34375 C 22.167969 0.34375 23.410156 -1.238281 23.410156 -3.648438 L 23.410156 -20.449219 C 23.410156 -22.859375 22.167969 -24.441406 19.621094 -24.441406 C 17.074219 -24.441406 15.835938 -22.859375 15.835938 -20.449219 Z M 15.835938 -15.421875 "/></g></g></g><g fill="#ffde59" fill-opacity="1"><g transform="translate(179.992502, 198.038747)"><g><path d="M 12.324219 -24.441406 C 12.253906 -24.441406 12.222656 -24.441406 12.152344 -24.441406 C 10.707031 -24.441406 9.398438 -23.582031 8.8125 -22.238281 L 0.757812 -5.09375 C 0.480469 -4.542969 0.34375 -3.992188 0.34375 -3.441406 C 0.34375 -1.378906 2.066406 0.34375 4.132812 0.34375 C 5.714844 0.34375 7.023438 -0.34375 7.574219 -1.859375 L 8.503906 -4.476562 L 15.972656 -4.476562 L 16.867188 -1.859375 C 17.417969 -0.34375 18.726562 0.34375 20.3125 0.34375 C 22.375 0.34375 24.097656 -1.378906 24.097656 -3.441406 C 24.097656 -3.992188 23.960938 -4.542969 23.683594 -5.09375 L 15.628906 -22.238281 C 15.007812 -23.546875 13.769531 -24.371094 12.324219 -24.441406 Z M 13.941406 -10.328125 L 10.535156 -10.328125 L 12.253906 -15.214844 Z M 13.941406 -10.328125 "/></g></g></g><g fill="#ffde59" fill-opacity="1"><g transform="translate(204.429231, 198.038747)"><g><path d="M 17.867188 -11.324219 C 20.242188 -12.1875 21.6875 -14.285156 21.6875 -17.558594 C 21.6875 -21.964844 19.070312 -24.097656 14.457031 -24.097656 L 5.164062 -24.097656 C 2.617188 -24.097656 1.378906 -22.515625 1.378906 -20.105469 L 1.378906 -3.648438 C 1.378906 -1.238281 2.617188 0.34375 5.164062 0.34375 C 7.710938 0.34375 8.949219 -1.238281 8.949219 -3.648438 L 8.949219 -9.089844 C 10.191406 -9.089844 11.085938 -8.742188 11.703125 -7.710938 L 15.558594 -1.515625 C 16.25 -0.414062 17.488281 0.34375 18.796875 0.34375 C 20.863281 0.34375 22.582031 -1.308594 22.582031 -3.375 C 22.582031 -4.132812 22.375 -4.820312 21.964844 -5.4375 L 19.347656 -9.640625 C 18.933594 -10.328125 18.453125 -10.878906 17.867188 -11.324219 Z M 8.949219 -15.007812 L 8.949219 -18.246094 L 12.394531 -18.246094 C 13.425781 -18.246094 14.113281 -17.625 14.113281 -16.59375 C 14.113281 -15.558594 13.425781 -15.007812 12.394531 -15.007812 Z M 8.949219 -15.007812 "/></g></g></g><g fill="#ffde59" fill-opacity="1"><g transform="translate(227.282738, 198.038747)"><g><path d="M 5.164062 -24.097656 C 2.617188 -24.097656 1.378906 -22.515625 1.378906 -20.105469 L 1.378906 -3.992188 C 1.378906 -1.582031 2.617188 0 5.164062 0 L 17.074219 0 C 18.660156 0 19.964844 -1.308594 19.964844 -2.890625 C 19.964844 -4.476562 18.660156 -5.851562 17.074219 -5.851562 L 8.949219 -5.851562 L 8.949219 -9.089844 L 13.632812 -9.089844 C 15.214844 -9.089844 16.523438 -10.464844 16.523438 -12.046875 C 16.523438 -13.632812 15.214844 -15.007812 13.632812 -15.007812 L 8.949219 -15.007812 L 8.949219 -18.246094 L 17.074219 -18.246094 C 18.660156 -18.246094 19.964844 -19.621094 19.964844 -21.207031 C 19.964844 -22.789062 18.660156 -24.097656 17.074219 -24.097656 Z M 5.164062 -24.097656 "/></g></g></g><g fill="#ffde59" fill-opacity="1"><g transform="translate(248.07117, 198.038747)"><g><path d="M 0.828125 -3.441406 C 0.828125 -1.238281 2.480469 0.34375 4.683594 0.34375 C 6.886719 0.34375 8.398438 -1.238281 8.398438 -3.441406 C 8.398438 -5.644531 6.886719 -7.230469 4.683594 -7.230469 C 2.480469 -7.230469 0.828125 -5.644531 0.828125 -3.441406 Z M 0.828125 -3.441406 "/></g></g></g><g fill="#ffde59" fill-opacity="1"><g transform="translate(257.364013, 198.038747)"><g><path d="M 14.046875 -24.441406 C 6.128906 -24.441406 0.757812 -19.621094 0.757812 -12.046875 C 0.757812 -4.476562 6.128906 0.34375 14.046875 0.34375 C 17.488281 0.34375 20.378906 -0.894531 22.238281 -2.410156 C 23.066406 -3.097656 23.546875 -3.992188 23.546875 -5.09375 C 23.546875 -7.160156 22.308594 -8.398438 20.105469 -8.398438 C 19.414062 -8.398438 19.003906 -8.261719 18.453125 -7.917969 C 16.9375 -6.886719 15.699219 -6.335938 14.046875 -6.335938 C 10.601562 -6.335938 8.332031 -8.46875 8.332031 -12.046875 C 8.332031 -15.628906 10.601562 -17.761719 14.046875 -17.761719 C 15.699219 -17.761719 16.9375 -17.210938 18.453125 -16.179688 C 19.003906 -15.835938 19.414062 -15.699219 20.105469 -15.699219 C 22.308594 -15.699219 23.546875 -16.9375 23.546875 -19.003906 C 23.546875 -20.105469 23.066406 -21 22.238281 -21.6875 C 20.378906 -23.203125 17.488281 -24.441406 14.046875 -24.441406 Z M 14.046875 -24.441406 "/></g></g></g><g fill="#ffde59" fill-opacity="1"><g transform="translate(281.800741, 198.038747)"><g><path d="M 14.113281 -17.761719 C 17.695312 -17.761719 19.828125 -15.492188 19.828125 -12.046875 C 19.828125 -8.605469 17.695312 -6.402344 14.113281 -6.402344 C 10.535156 -6.402344 8.46875 -8.605469 8.46875 -12.046875 C 8.46875 -15.492188 10.535156 -17.761719 14.113281 -17.761719 Z M 14.113281 -24.441406 C 5.714844 -24.441406 0.894531 -19.210938 0.894531 -12.046875 C 0.894531 -4.886719 5.714844 0.34375 14.113281 0.34375 C 22.515625 0.34375 27.402344 -4.886719 27.402344 -12.046875 C 27.402344 -19.210938 22.515625 -24.441406 14.113281 -24.441406 Z M 14.113281 -24.441406 "/></g></g></g><g fill="#ffde59" fill-opacity="1"><g transform="translate(310.023438, 198.038747)"><g><path d="M 6.335938 -24.441406 C 4.40625 -24.441406 2.824219 -22.996094 2.617188 -21.136719 L 0.894531 -3.785156 C 0.894531 -3.648438 0.828125 -3.511719 0.828125 -3.375 C 0.828125 -1.238281 2.410156 0.34375 4.542969 0.34375 C 6.539062 0.34375 8.054688 -1.03125 8.261719 -3.03125 L 8.882812 -10.808594 L 11.292969 -5.027344 C 11.773438 -3.785156 12.875 -3.097656 14.457031 -3.097656 C 15.972656 -3.097656 17.144531 -3.785156 17.625 -5.027344 L 20.035156 -10.808594 L 20.65625 -3.03125 C 20.863281 -1.03125 22.375 0.34375 24.371094 0.34375 C 26.507812 0.34375 28.089844 -1.238281 28.089844 -3.375 C 28.089844 -3.511719 28.023438 -3.648438 28.023438 -3.785156 L 26.300781 -21.136719 C 26.09375 -23.066406 24.441406 -24.441406 22.515625 -24.441406 C 21.207031 -24.441406 19.964844 -23.753906 19.414062 -22.582031 L 14.457031 -12.460938 L 9.5 -22.582031 C 8.949219 -23.753906 7.78125 -24.441406 6.335938 -24.441406 Z M 6.335938 -24.441406 "/></g></g></g></svg>